<?xml version="1.0" encoding="UTF-8"?><svg id="Layer_2" xmlns="http://www.w3.org/2000/svg" xmlns:xlink="http://www.w3.org/1999/xlink" viewBox="0 0 873.99 661.86"><defs><style>.cls-1,.cls-2,.cls-3,.cls-4,.cls-5,.cls-6,.cls-7,.cls-8,.cls-9,.cls-10,.cls-11{stroke-miterlimit:10;stroke-width:2px;}.cls-1,.cls-2,.cls-3,.cls-4,.cls-5,.cls-6,.cls-7,.cls-8,.cls-10{stroke:#7d2cff;}.cls-12{fill:url(#linear-gradient-3);}.cls-2{fill:url(#linear-gradient-8);}.cls-3{fill:url(#linear-gradient-5);}.cls-4{fill:url(#linear-gradient-7);}.cls-5{fill:url(#linear-gradient-9);}.cls-6{fill:url(#linear-gradient-2);}.cls-7{fill:url(#linear-gradient-6);}.cls-13,.cls-8,.cls-9,.cls-11{fill:#7d2cff;}.cls-9{stroke:url(#linear-gradient);}.cls-14{fill:url(#linear-gradient-4);}.cls-14,.cls-15{opacity:.78;}.cls-10{fill:url(#linear-gradient-10);}.cls-15{fill:url(#linear-gradient-11);}.cls-11{stroke:#000;}</style><linearGradient id="linear-gradient" x1="411.99" y1="575.29" x2="1006.28" y2="537.87" gradientUnits="userSpaceOnUse"><stop offset="0" stop-color="#1a1a1a"/><stop offset="1" stop-color="#000"/></linearGradient><linearGradient id="linear-gradient-2" x1="343.94" y1="368.01" x2="780.14" y2="340.55" xlink:href="#linear-gradient"/><linearGradient id="linear-gradient-3" x1="537.2" y1="327.27" x2="739.9" y2="368.03" gradientUnits="userSpaceOnUse"><stop offset="0" stop-color="#1a1a1a" stop-opacity="0"/><stop offset="1" stop-color="#000"/></linearGradient><linearGradient id="linear-gradient-4" x1="741.47" y1="293.28" x2="796.58" y2="185.09" gradientUnits="userSpaceOnUse"><stop offset="0" stop-color="#000" stop-opacity="0"/><stop offset="1" stop-color="#000"/></linearGradient><linearGradient id="linear-gradient-5" x1="450.5" y1="136.43" x2="881.17" y2="109.32" xlink:href="#linear-gradient"/><linearGradient id="linear-gradient-6" x1="741.63" y1="88.81" x2="743.27" y2="88.71" xlink:href="#linear-gradient"/><linearGradient id="linear-gradient-7" x1="802.68" y1="79.83" x2="815.3" y2="79.04" xlink:href="#linear-gradient"/><linearGradient id="linear-gradient-8" x1="573.56" y1="148.7" x2="606.9" y2="146.6" xlink:href="#linear-gradient"/><linearGradient id="linear-gradient-9" x1="503.37" y1="151.4" x2="533.2" y2="149.52" xlink:href="#linear-gradient"/><linearGradient id="linear-gradient-10" x1="447.71" y1="150.99" x2="465.32" y2="149.88" xlink:href="#linear-gradient"/><linearGradient id="linear-gradient-11" x1="355.08" y1="271.43" x2="702.96" y2="788.71" gradientTransform="translate(901.03 826.68) rotate(-180)" xlink:href="#linear-gradient-4"/></defs><path class="cls-1" d="M416.36,589.45c-1.77-15.01-3.54-30.01-5.31-45.01.01.1.04.2.08.3s.09.2.16.29.14.19.24.28.2.19.32.28l5.32,45.14c-.12-.1-.23-.2-.32-.31s-.17-.21-.24-.32-.12-.22-.16-.32-.07-.22-.08-.33Z"/><polygon class="cls-1" points="530.02 633.83 535.71 689.27 417.16 590.73 411.84 545.59 530.02 633.83"/><polygon class="cls-1" points="991.87 557.53 993.76 609.1 577.19 691.54 571.78 635.56 991.87 557.53"/><path class="cls-9" d="M775.3,481.71c3-.48,6.15-.84,9.27-1.07s6.22-.34,9.14-.33,5.65.14,8.02.4,4.4.64,5.88,1.14l193.78,65.38c2.23.75,3.64,1.6,4.29,2.49s.53,1.84-.31,2.77-2.43,1.86-4.69,2.72-5.22,1.65-8.81,2.32l-420.09,78.03c-4.34.81-8.77,1.36-13.08,1.68s-8.47.39-12.27.23-7.2-.55-10.02-1.16-5.01-1.44-6.39-2.47l-118.18-88.25c-.89-.66-1.01-1.41-.48-2.19s1.71-1.59,3.44-2.38,3.99-1.57,6.7-2.3,5.84-1.38,9.33-1.94l344.47-55.07Z"/><path class="cls-1" d="M571.78,635.56l5.41,55.98c-4.3.85-8.7,1.42-12.97,1.73s-8.41.35-12.18.14-7.16-.67-9.96-1.37-4.99-1.63-6.38-2.78l-5.69-55.43c1.38,1.03,3.59,1.86,6.39,2.47s6.23,1,10.02,1.16,7.96.09,12.27-.23,8.74-.87,13.08-1.68Z"/><path class="cls-8" d="M567.93,560.18l300.03-56.79-56.96-19.11c-9.37-3.14-19.36-4.01-29.13-2.52l-142.35,21.66-71.6,56.76Z"/><path class="cls-1" d="M324.21,165.95c1.83,40.81,32.87,75.79,68.93,94.99,36.05,19.2,67.78,21.96,108.23,27.63,52.06,7.3,69.9,6.03,131.22,17.53-64.3-6.89-117.47-10.71-176.14-5.74-31.57,2.68-64.01,7.71-90.93,24.44-26.91,16.73-47.1,47.77-44.81,82,.05-13.02.04-26.35-4.42-38.58-4.46-12.23-14.36-23.33-27.2-25.43-10.52-1.72-20.98,2.68-30.62,7.22-34.7,16.31-68.01,35.58-99.44,57.54,27.78-20.64,55.86-41.56,77.76-68.35,7.63-9.33,14.77-20.41,13.82-32.42-1.02-12.91-11.51-23.5-23.45-28.52-11.94-5.01-25.21-5.51-38.15-5.93-50.68-1.67-101.37-3.33-150.73-4.94,65.76,3.07,105.06,2.99,150.73,4.94,21.84.93,30.9-3.09,51.14-11.38,11.18-4.58,21.87-13.05,24.29-24.89,1.78-8.7-1.2-17.65-4.93-25.71-12.37-26.71-33.02-48.55-53.31-69.88,23.26,20.15,46.53,40.3,69.79,60.45,7.48,6.48,16.23,13.38,26.07,12.25,8.92-1.02,15.92-8.74,18.83-17.23s3.73-21.04,3.33-30.01Z"/><path class="cls-1" d="M840.95,404.29l-17.79,35.65c-.17.34-.38.68-.61.99s-.51.61-.81.89-.64.54-1.01.79-.77.47-1.21.67l17.79-35.72c.44-.2.84-.41,1.21-.65s.71-.49,1.01-.77.57-.57.81-.88.44-.63.61-.97Z"/><path class="cls-1" d="M295.44,300.77l9.71-39.48c-.18.72-.24,1.46-.18,2.23s.24,1.56.53,2.35.72,1.61,1.27,2.41,1.22,1.62,2.02,2.41l-9.83,39.55c-.78-.8-1.44-1.61-1.98-2.42s-.94-1.62-1.23-2.43-.46-1.6-.51-2.38.01-1.53.19-2.26Z"/><polygon class="cls-8" points="837.31 407.57 819.52 443.29 567.93 560.18 583.81 521.06 837.31 407.57"/><polygon class="cls-1" points="553.1 513.57 537.74 552.92 298.97 310.25 308.79 270.7 553.1 513.57"/><path class="cls-1" d="M579.3,218.45c1.29-.22,2.71-.26,4.19-.12s3.02.44,4.54.89,3.02,1.05,4.43,1.78,2.71,1.58,3.84,2.54l176.47,149.6c1.44,1.22,2.57,2.49,3.38,3.75s1.3,2.51,1.45,3.67-.02,2.24-.55,3.17-1.39,1.7-2.62,2.25l-190.06,85.1c-.1.04-.2.09-.3.13s-.2.08-.31.12-.21.08-.31.11-.21.07-.31.11c-1.64.54-3.47.78-5.38.76s-3.89-.32-5.85-.86-3.89-1.33-5.69-2.34-3.46-2.23-4.89-3.65l-183.17-182.1c-1.23-1.22-2.06-2.48-2.5-3.71s-.5-2.42-.19-3.51.98-2.09,1.99-2.92,2.36-1.5,4.04-1.95l196.83-52.61c.08-.02.16-.04.23-.06s.16-.04.24-.05.16-.03.24-.05.16-.03.25-.05Z"/><path class="cls-6" d="M577.05,184.12c1.72-.3,3.62-.34,5.59-.16s4.03.59,6.06,1.19,4.03,1.4,5.9,2.37,3.62,2.11,5.13,3.39l235.37,199.53c1.92,1.63,3.43,3.33,4.5,5.01s1.73,3.34,1.93,4.89-.03,2.99-.73,4.23-1.86,2.27-3.49,3l-253.49,113.5c-.13.06-.27.12-.4.17s-.27.11-.41.16-.27.1-.41.15-.28.1-.42.14c-2.19.72-4.63,1.05-7.17,1.01s-5.19-.43-7.8-1.15-5.19-1.77-7.59-3.12-4.61-2.98-6.52-4.87l-244.31-242.87c-1.64-1.63-2.75-3.31-3.33-4.95s-.66-3.22-.25-4.68,1.3-2.78,2.65-3.89,3.15-2,5.38-2.6l262.52-70.17c.1-.03.21-.05.31-.08s.21-.05.32-.07.21-.05.32-.07.22-.04.33-.06Z"/><path class="cls-1" d="M583.81,521.06l-15.88,39.12c-.13.06-.26.12-.4.18s-.27.11-.4.17-.27.11-.41.16-.28.1-.42.15c-2.17.74-4.57,1.1-7.07,1.08s-5.11-.38-7.68-1.09-5.09-1.74-7.44-3.07-4.52-2.95-6.37-4.84l15.36-39.36c1.9,1.89,4.12,3.53,6.52,4.87s4.97,2.39,7.59,3.12,5.26,1.12,7.8,1.15,4.98-.29,7.17-1.01c.14-.05.28-.09.42-.14s.28-.1.41-.15.27-.11.41-.16.27-.11.4-.17Z"/><path class="cls-13" d="M706.56,464.89l-.74.67-.74.67c-62.23-67.79-93.47-101.82-127.38-110.42-33.84-8.58-69.81,8.38-141.48,42.16l-.86-1.8c73.97-35.92,106.86-52.74,111.22-75.09,4.35-22.24-19.51-49.9-73.9-110.33l1.48-1.35c53.16,57.82,79.84,86.84,110.88,93.19,29.78,6.1,63.01-8.7,135.33-42.77l.43.9.43.9c-64.45,31.31-99.95,48.56-104.54,72.11-5.04,25.85,26.68,61.04,89.87,131.16Z"/><path class="cls-12" d="M706.56,464.89l-.74.67-.74.67c-62.23-67.79-93.47-101.82-127.38-110.42-33.84-8.58-69.81,8.38-141.48,42.16l-.86-1.8c73.97-35.92,106.86-52.74,111.22-75.09,4.35-22.24-19.51-49.9-73.9-110.33l1.48-1.35c53.16,57.82,79.84,86.84,110.88,93.19,29.78,6.1,63.01-8.7,135.33-42.77l.43.9.43.9c-64.45,31.31-99.95,48.56-104.54,72.11-5.04,25.85,26.68,61.04,89.87,131.16Z"/><path class="cls-1" d="M433.45,197.38l-13.78-43.23c.03.09.07.18.13.27s.12.17.2.24.17.15.28.22.22.14.36.2l13.81,43.33c-.13-.07-.26-.14-.36-.22s-.2-.16-.28-.25-.15-.18-.21-.27-.1-.19-.13-.29Z"/><path class="cls-1" d="M583.91,213.12l15.38,52.2c-2.75,1.18-5.64,2.18-8.49,2.97s-5.68,1.37-8.31,1.73-5.07.48-7.16.35-3.82-.5-5.04-1.14l-15.53-51.83c1.21.56,2.94.87,5.03.94s4.53-.1,7.18-.49,5.49-.99,8.37-1.79,5.8-1.79,8.58-2.94Z"/><line class="cls-11" x1="730.06" y1="487.15" x2="566.92" y2="562.95"/><path class="cls-1" d="M886.16,249.14c0,2.26-.06,4.5-.19,6.74-1.64,30.33-14.34,57.71-34.15,78.2-18.35,18.98-42.8,32.03-70.2,36-5.76.84-11.66,1.27-17.66,1.27-67.49,0-122.21-54.72-122.21-122.22s54.72-122.21,122.21-122.21,122.21,54.72,122.21,122.21Z"/><path class="cls-8" d="M864.67,268.78c-4.42,25.98-18.44,50.55-39.69,66.15-20.13,14.77-46.75,20.9-70.98,15.13,13.77,2.89,38.06-7.38,45.54-19.28,7.48-11.91,9.24-26.56,9-40.62-.26-14.06-2.35-28.09-1.78-42.14.57-14.05,4.13-28.63,13.59-39.05,9.45-10.42,28.28-14.99,41.34,6.28,5.15,17.31,6.02,35.7,2.98,53.54Z"/><path class="cls-1" d="M861.69,215.24c-13.06-21.27-31.89-16.7-41.34-6.28-9.45,10.43-13.02,25-13.59,39.05-.57,14.05,1.52,28.08,1.78,42.14.25,14.06-1.51,28.72-9,40.62-7.48,11.91-31.78,22.17-45.54,19.28-1.35-.31-2.68-.67-4.02-1.06-2.93-.87-6.2-2.31-7.04-5.25-1.09-3.89,2.68-7.26,5.88-9.71,23.7-18.2,38.4-47.98,37.18-77.84-.41-10.21-2.56-20.27-3.09-30.46-.52-10.2.79-20.94,6.58-29.35,7.07-10.27,20.05-15.64,32.03-17.34,18.8-2.66,30.41,10.6,36.86,26.73.65,1.61,1.25,3.24,1.82,4.88.53,1.52,1.01,3.05,1.47,4.59Z"/><path class="cls-1" d="M752.28,127.49c-28.44,9.3-60.02,29.53-75.92,54.88-9.66,15.4-16.63,32.91-17.28,51.08-.65,18.17,5.6,37.03,18.98,49.34,13.38,12.31,34.25,16.82,50.56,8.8,13.9-6.83,22.53-20.97,29.62-34.74,7.09-13.78,14.07-39.06,26.13-48.78"/><path class="cls-1" d="M757.53,127.1c-28.1,7.84-48.98,35.38-52.48,57.05-1.44,8.88-1.01,21.87,1.63,30.47,2.64,8.6,9.25,16.31,17.97,18.53,12.25,3.12,24.5-4.89,33.54-13.73s33.55-31.09,45.58-34.96"/><path class="cls-14" d="M886.16,249.14c0,2.26-.06,4.5-.19,6.74-1.64,30.33-14.34,57.71-34.15,78.2-18.35,18.98-42.8,32.03-70.2,36-5.76.84-11.66,1.27-17.66,1.27-67.49,0-122.21-54.72-122.21-122.22s54.72-122.21,122.21-122.21,122.21,54.72,122.21,122.21Z"/><polygon class="cls-8" points="926.52 71.03 937.92 120.12 599.29 265.33 583.91 213.12 926.52 71.03"/><path class="cls-3" d="M723.88,33.43c2.03-.78,4.19-1.48,6.37-2.08s4.35-1.1,6.43-1.48,4.04-.63,5.78-.74,3.25-.07,4.4.13l184.57,32.64c1.64.29,2.75.76,3.33,1.37s.65,1.35.21,2.17-1.38,1.74-2.79,2.69-3.31,1.94-5.66,2.91l-342.61,142.09c-2.79,1.16-5.7,2.14-8.58,2.94s-5.73,1.4-8.37,1.79-5.09.56-7.18.49-3.81-.37-5.03-.94l-134.12-62.32c-.83-.38-1.13-.93-.98-1.6s.77-1.44,1.78-2.28,2.41-1.75,4.14-2.66,3.79-1.85,6.13-2.75l292.18-112.36Z"/><polygon class="cls-1" points="554.75 217.41 570.28 269.23 434.44 198.41 420.63 155.09 554.75 217.41"/><line class="cls-1" x1="681.27" y1="49.66" x2="661.91" y2="182.71"/><line class="cls-7" x1="737.84" y1="30.53" x2="747.16" y2="146.98"/><line class="cls-4" x1="799.17" y1="38.96" x2="819.54" y2="119.86"/><line class="cls-2" x1="607.05" y1="79.12" x2="575.32" y2="216.06"/><line class="cls-5" x1="534.41" y1="106.28" x2="503.87" y2="194.53"/><line class="cls-10" x1="447.52" y1="168.73" x2="466.53" y2="132.08"/><rect class="cls-15" x="-38.86" y="96.99" width="978.75" height="632.69" transform="translate(901.03 826.68) rotate(180)"/></svg>